<svg id="Layer_1" data-name="Layer 1" xmlns="http://www.w3.org/2000/svg" viewBox="0 0 58.8 11.32"><defs><style>.cls-1{fill:#1d1d1d;}</style></defs><title>tamsin-io-black-api</title><path class="cls-1" d="M6.36,11.57a.7.7,0,0,0-.16.09l-.29.12-.39.11a2.34,2.34,0,0,1-.47,0,1.41,1.41,0,0,1-.47-.07,1.2,1.2,0,0,1-.4-.22,1,1,0,0,1-.26-.35,1.14,1.14,0,0,1-.09-.48V6.12H3V5.63h.88V3.49h.6V5.63H5.88v.49H4.43v4.56a.59.59,0,0,0,.23.52.92.92,0,0,0,.54.18,1.6,1.6,0,0,0,.65-.13l.33-.16Z" transform="translate(-2.95 -3.11)"/><path class="cls-1" d="M8.23,12a2.07,2.07,0,0,1-.8-.15,2.23,2.23,0,0,1-.66-.41,1.9,1.9,0,0,1-.44-.61,1.94,1.94,0,0,1-.15-.76,1.47,1.47,0,0,1,.19-.75,1.94,1.94,0,0,1,.53-.58,3.12,3.12,0,0,1,.82-.39,4,4,0,0,1,1.06-.13,6,6,0,0,1,1,.09,5.22,5.22,0,0,1,.91.24V7.93a1.93,1.93,0,0,0-.5-1.41A1.81,1.81,0,0,0,8.84,6a2.68,2.68,0,0,0-1,.19,5,5,0,0,0-1,.55l-.23-.4a4.06,4.06,0,0,1,2.28-.82,2.43,2.43,0,0,1,1.78.65A2.47,2.47,0,0,1,11.31,8v3q0,.3.27.3v.54l-.13,0h-.11a.5.5,0,0,1-.39-.16.68.68,0,0,1-.16-.39v-.52a2.8,2.8,0,0,1-1.11.87A3.52,3.52,0,0,1,8.23,12Zm.12-.48a3,3,0,0,0,1.28-.27,2.16,2.16,0,0,0,.89-.69.8.8,0,0,0,.19-.48V9a5,5,0,0,0-.9-.25,6,6,0,0,0-1-.08,3.2,3.2,0,0,0-.85.1A2.22,2.22,0,0,0,7.33,9a1.29,1.29,0,0,0-.43.44,1.1,1.1,0,0,0-.15.57,1.48,1.48,0,0,0,.12.59,1.49,1.49,0,0,0,.85.78A1.64,1.64,0,0,0,8.35,11.51Z" transform="translate(-2.95 -3.11)"/><path class="cls-1" d="M21.58,11.87H21V8.39a3.29,3.29,0,0,0-.36-1.75,1.25,1.25,0,0,0-1.12-.57,1.88,1.88,0,0,0-.74.15,2.1,2.1,0,0,0-.63.4,2.51,2.51,0,0,0-.5.61A3.29,3.29,0,0,0,17.3,8v3.85h-.6V8.39a3.33,3.33,0,0,0-.36-1.76,1.24,1.24,0,0,0-1.12-.56,2,2,0,0,0-.72.14,1.92,1.92,0,0,0-.63.4,2.8,2.8,0,0,0-.51.61A2.88,2.88,0,0,0,13,8v3.87h-.6V5.63H13V7.12a3,3,0,0,1,1-1.18,2.39,2.39,0,0,1,1.38-.42A1.79,1.79,0,0,1,16.65,6a1.94,1.94,0,0,1,.59,1.22,2.7,2.7,0,0,1,2.45-1.69,1.57,1.57,0,0,1,1.46.73,4,4,0,0,1,.43,2Z" transform="translate(-2.95 -3.11)"/><path class="cls-1" d="M24.66,12a4,4,0,0,1-1.38-.24A3.24,3.24,0,0,1,22.12,11l.3-.41a3.57,3.57,0,0,0,1,.67,3,3,0,0,0,1.19.22A2.33,2.33,0,0,0,26,11.17a1.11,1.11,0,0,0,.5-1,.82.82,0,0,0-.13-.48A.91.91,0,0,0,26,9.39a3.45,3.45,0,0,0-.62-.25l-.86-.22c-.36-.08-.66-.16-.92-.24a2.4,2.4,0,0,1-.64-.29A1.06,1.06,0,0,1,22.54,8a1.23,1.23,0,0,1-.13-.61,1.77,1.77,0,0,1,.18-.82,1.61,1.61,0,0,1,.5-.57,2.25,2.25,0,0,1,.73-.35,3.6,3.6,0,0,1,.88-.11,3.14,3.14,0,0,1,1.3.25,2.19,2.19,0,0,1,.88.63l-.34.32a1.93,1.93,0,0,0-.81-.54A3.11,3.11,0,0,0,24.67,6a2.84,2.84,0,0,0-.66.07,1.7,1.7,0,0,0-.53.23,1.16,1.16,0,0,0-.36.4,1.21,1.21,0,0,0-.13.58,1,1,0,0,0,.09.45.73.73,0,0,0,.29.29,2.06,2.06,0,0,0,.51.21l.74.19,1,.28a3.5,3.5,0,0,1,.77.32,1.35,1.35,0,0,1,.46.46,1.26,1.26,0,0,1,.17.67,1.59,1.59,0,0,1-.66,1.34A2.81,2.81,0,0,1,24.66,12Z" transform="translate(-2.95 -3.11)"/><path class="cls-1" d="M27.73,4.21V3.11h.6v1.1Zm0,7.66V5.63h.6v6.24Z" transform="translate(-2.95 -3.11)"/><path class="cls-1" d="M34.59,11.87H34V8.39a3.48,3.48,0,0,0-.34-1.77,1.2,1.2,0,0,0-1.09-.55,2.16,2.16,0,0,0-.78.15,2.75,2.75,0,0,0-.73.4,3.47,3.47,0,0,0-.59.62,2.82,2.82,0,0,0-.37.76v3.87h-.6V5.63h.57V7.12a2.74,2.74,0,0,1,.47-.66,3.29,3.29,0,0,1,1.39-.83,3.1,3.1,0,0,1,.81-.11,1.54,1.54,0,0,1,1.44.71,4.1,4.1,0,0,1,.42,2Z" transform="translate(-2.95 -3.11)"/><path class="cls-1" d="M35.52,11.87V10.52h.88v1.35Z" transform="translate(-2.95 -3.11)"/><path class="cls-1" d="M37.24,4.56V3.11h1.32V4.56Zm0,7.31V5.59h1.32v6.28Z" transform="translate(-2.95 -3.11)"/><path class="cls-1" d="M42.25,12a3.21,3.21,0,0,1-1.34-.27,3,3,0,0,1-1-.7,3.2,3.2,0,0,1-.65-1,3.48,3.48,0,0,1,0-2.49,3.06,3.06,0,0,1,.65-1,3.21,3.21,0,0,1,2.35-1,3.11,3.11,0,0,1,1.32.27,3,3,0,0,1,1,.71,2.94,2.94,0,0,1,.66,1,3.48,3.48,0,0,1,0,2.49,3.08,3.08,0,0,1-1.68,1.74A3.11,3.11,0,0,1,42.25,12ZM40.38,8.75a2.32,2.32,0,0,0,.14.84,2.08,2.08,0,0,0,.4.66,1.75,1.75,0,0,0,.59.45,1.67,1.67,0,0,0,.74.16A1.7,1.7,0,0,0,43,10.7a2,2,0,0,0,.59-.45,2.25,2.25,0,0,0,.4-.67A2.59,2.59,0,0,0,44,7.9a2.3,2.3,0,0,0-.4-.68A2,2,0,0,0,43,6.77a1.86,1.86,0,0,0-.74-.16,1.66,1.66,0,0,0-.73.17,1.75,1.75,0,0,0-.59.46,2.13,2.13,0,0,0-.4.67A2.32,2.32,0,0,0,40.38,8.75Z" transform="translate(-2.95 -3.11)"/><path d="M48.9,12a2.07,2.07,0,0,1-.8-.15,2.23,2.23,0,0,1-.66-.41,1.9,1.9,0,0,1-.44-.61,1.94,1.94,0,0,1-.15-.76A1.47,1.47,0,0,1,47,9.31a1.94,1.94,0,0,1,.53-.58,3,3,0,0,1,.83-.39,3.87,3.87,0,0,1,1.05-.13,5.86,5.86,0,0,1,1,.09,5.22,5.22,0,0,1,.91.24V7.93a1.93,1.93,0,0,0-.5-1.41A1.81,1.81,0,0,0,49.51,6a2.68,2.68,0,0,0-1,.19,5,5,0,0,0-1,.55l-.23-.4a4.06,4.06,0,0,1,2.28-.82,2.43,2.43,0,0,1,1.78.65A2.47,2.47,0,0,1,52,8v3q0,.3.27.3v.54l-.13,0H52a.5.5,0,0,1-.39-.16.68.68,0,0,1-.16-.39v-.52a2.8,2.8,0,0,1-1.11.87A3.52,3.52,0,0,1,48.9,12Zm.12-.48a3,3,0,0,0,1.28-.27,2.1,2.1,0,0,0,.89-.69.8.8,0,0,0,.19-.48V9a5,5,0,0,0-.9-.25,6,6,0,0,0-1-.08,3.25,3.25,0,0,0-.85.1A2.22,2.22,0,0,0,48,9a1.39,1.39,0,0,0-.43.44,1.1,1.1,0,0,0-.15.57,1.48,1.48,0,0,0,.12.59,1.49,1.49,0,0,0,.85.78A1.68,1.68,0,0,0,49,11.51Z" transform="translate(-2.95 -3.11)"/><path d="M56.86,12a2.47,2.47,0,0,1-1.44-.43,3.34,3.34,0,0,1-1-1v3.9h-.6V5.63h.55V6.88a3.05,3.05,0,0,1,1-1,2.6,2.6,0,0,1,1.35-.38,2.53,2.53,0,0,1,1.2.28,3,3,0,0,1,.95.72,3.43,3.43,0,0,1,.84,2.24,4,4,0,0,1-.2,1.24,3.35,3.35,0,0,1-.58,1,3,3,0,0,1-.91.7A2.63,2.63,0,0,1,56.86,12Zm-.15-.54a2.19,2.19,0,0,0,1-.23,2.32,2.32,0,0,0,.75-.61,2.69,2.69,0,0,0,.48-.86,3.08,3.08,0,0,0,.17-1,2.77,2.77,0,0,0-.19-1,2.68,2.68,0,0,0-.54-.85,2.59,2.59,0,0,0-.79-.6,2.2,2.2,0,0,0-1-.22,2.07,2.07,0,0,0-.69.14,2.88,2.88,0,0,0-.69.37,2.77,2.77,0,0,0-.55.53,1.27,1.27,0,0,0-.26.64v2a2.88,2.88,0,0,0,.39.65,3,3,0,0,0,.54.53,2.41,2.41,0,0,0,.65.35A2,2,0,0,0,56.71,11.45Z" transform="translate(-2.95 -3.11)"/><path d="M61.15,4.21V3.11h.6v1.1Zm0,7.66V5.63h.6v6.24Z" transform="translate(-2.95 -3.11)"/></svg>