<?xml version="1.0" encoding="utf-8"?>
<!-- Generator: Adobe Illustrator 23.1.0, SVG Export Plug-In . SVG Version: 6.00 Build 0)  -->
<svg version="1.1" id="Layer_1" xmlns="http://www.w3.org/2000/svg" xmlns:xlink="http://www.w3.org/1999/xlink" x="0px" y="0px"
	 viewBox="0 0 1440 167.9" style="enable-background:new 0 0 1440 167.9;" xml:space="preserve">
<style type="text/css">
	.st0{fill:#FFFFFF;}
</style>
<path class="st0" d="M1440,167.9h-48c-48,0-144,0-240,0s-192,0-288,0s-192,0-288,0s-192,0-288,0s-192,0-240,0H0l0,0l48-10.7
	c48-10.7,144-32.2,240-35.7c96-3.8,192,10.9,288,14.3c96,3.3,192-3.3,288-21.4s192-46.2,288-46.4c96,0.2,192,28.3,240,42.9l48,14.3
	V167.9z"/>
</svg>
